<svg width="17" height="10" viewBox="0 0 17 10" fill="none" xmlns="http://www.w3.org/2000/svg">
<path d="M15.3807 6.16667V6.91667C15.7949 6.91667 16.1307 6.58088 16.1307 6.16667H15.3807ZM13.7648 9.25C14.179 9.25 14.5148 8.91421 14.5148 8.5C14.5148 8.08579 14.179 7.75 13.7648 7.75V9.25ZM13.6243 3.125C14.0385 3.125 14.3743 2.78921 14.3743 2.375C14.3743 1.96079 14.0385 1.625 13.6243 1.625V3.125ZM11.5167 1.625C11.1024 1.625 10.7667 1.96079 10.7667 2.375C10.7667 2.78921 11.1024 3.125 11.5167 3.125V1.625ZM1.32959 5.75H6.24748V4.25H1.32959V5.75ZM6.24748 5.75C7.16422 5.75 7.60515 6.29707 7.60515 6.75H9.10515C9.10515 5.2196 7.71944 4.25 6.24748 4.25V5.75ZM7.60515 6.75C7.60515 7.20293 7.16422 7.75 6.24748 7.75V9.25C7.71944 9.25 9.10515 8.2804 9.10515 6.75H7.60515ZM6.24748 7.75H2.03215V9.25H6.24748V7.75ZM2.03215 7.75C1.9546 7.75 1.96124 7.7288 2.0019 7.76256C2.02284 7.77994 2.0449 7.8063 2.06062 7.84023C2.07629 7.87406 2.07959 7.90226 2.07959 7.91667H0.57959C0.57959 8.30902 0.744794 8.66844 1.04369 8.91661C1.33024 9.15453 1.68816 9.25 2.03215 9.25V7.75ZM2.07959 7.91667V2.08333H0.57959V7.91667H2.07959ZM2.07959 2.08333C2.07959 2.09774 2.07629 2.12594 2.06062 2.15977C2.0449 2.1937 2.02284 2.22006 2.0019 2.23744C1.96124 2.2712 1.9546 2.25 2.03215 2.25V0.75C1.68816 0.75 1.33024 0.845466 1.04369 1.08339C0.744794 1.33156 0.57959 1.69097 0.57959 2.08333H2.07959ZM2.03215 2.25H5.54493V0.75H2.03215V2.25ZM5.54493 2.25C6.46166 2.25 6.9026 2.79707 6.9026 3.25H8.4026C8.4026 1.7196 7.01689 0.75 5.54493 0.75V2.25ZM6.9026 3.25C6.9026 3.70293 6.46166 4.25 5.54493 4.25V5.75C7.01689 5.75 8.4026 4.7804 8.4026 3.25H6.9026ZM5.54493 4.25H1.32959V5.75H5.54493V4.25ZM9.76027 6.91667H15.3807V5.41667H9.76027V6.91667ZM16.1307 6.16667C16.1307 4.3446 14.3937 3.08333 12.5705 3.08333V4.58333C13.8385 4.58333 14.6307 5.42207 14.6307 6.16667H16.1307ZM12.5705 3.08333C10.7473 3.08333 9.01026 4.3446 9.01026 6.16667H10.5103C10.5103 5.42207 11.3025 4.58333 12.5705 4.58333V3.08333ZM9.01026 6.16667C9.01026 7.98873 10.7473 9.25 12.5705 9.25V7.75C11.3025 7.75 10.5103 6.91127 10.5103 6.16667H9.01026ZM12.5705 9.25H13.7648V7.75H12.5705V9.25ZM13.6243 1.625H11.5167V3.125H13.6243V1.625Z" fill="white"/>
</svg>
