<svg width="17" height="16" viewBox="0 0 17 16" fill="none" xmlns="http://www.w3.org/2000/svg">
<path d="M12.3148 4.5H12.3232M6.24748 15H10.4628C13.9756 15 15.3807 13.6 15.3807 10.1V5.9C15.3807 2.4 13.9756 1 10.4628 1H6.24748C2.7347 1 1.32959 2.4 1.32959 5.9V10.1C1.32959 13.6 2.7347 15 6.24748 15ZM8.35515 10.45C8.67807 10.45 8.99782 10.3866 9.29615 10.2635C9.59448 10.1404 9.86556 9.95991 10.0939 9.73241C10.3222 9.50491 10.5033 9.23482 10.6269 8.93757C10.7505 8.64033 10.8141 8.32174 10.8141 8C10.8141 7.67826 10.7505 7.35967 10.6269 7.06243C10.5033 6.76518 10.3222 6.49509 10.0939 6.26759C9.86556 6.04008 9.59448 5.85962 9.29615 5.73649C8.99782 5.61337 8.67807 5.55 8.35515 5.55C7.703 5.55 7.07756 5.80812 6.61641 6.26759C6.15527 6.72705 5.89621 7.35022 5.89621 8C5.89621 8.64978 6.15527 9.27295 6.61641 9.73241C7.07756 10.1919 7.703 10.45 8.35515 10.45Z" stroke="white" stroke-width="1.5" stroke-linecap="round" stroke-linejoin="round"/>
</svg>
