<svg width="16" height="16" viewBox="0 0 16 16" fill="none" xmlns="http://www.w3.org/2000/svg">
<path d="M4.77212 14.02L5.02867 13.5908C4.91028 13.5201 4.76791 13.5013 4.63524 13.5391L4.77212 14.02ZM2.24291 11.5L2.7267 11.6263C2.75851 11.5044 2.74317 11.3751 2.68373 11.264L2.24291 11.5ZM1.63871 13.8142L1.15493 13.6879L1.15491 13.688L1.63871 13.8142ZM2.51199 14.6633L2.37511 14.1824L2.37487 14.1825L2.51199 14.6633ZM11.5167 9.9936H12.0167L12.0166 9.99031L11.5167 9.9936ZM11.4373 10.3373L10.986 10.122L10.9849 10.1242L11.4373 10.3373ZM11.2223 10.6586L11.5916 10.9957L11.5919 10.9954L11.2223 10.6586ZM10.7024 11.0303L10.5135 10.5673L10.51 10.5688L10.7024 11.0303ZM9.05279 10.9204L8.85451 11.3794L8.85825 11.381L9.05279 10.9204ZM7.96383 10.296L8.25984 9.89304L8.25806 9.89174L7.96383 10.296ZM6.92545 9.414L6.57162 9.7673L6.5741 9.76974L6.92545 9.414ZM6.04234 8.3843L6.44543 8.08846L6.44483 8.08766L6.04234 8.3843ZM5.42128 7.3105L4.96039 7.50451L4.96342 7.51142L5.42128 7.3105ZM5.30746 5.6725L5.77148 5.85878L5.77263 5.85585L5.30746 5.6725ZM5.67209 5.1461L6.01425 5.51088L6.02251 5.50276L5.67209 5.1461ZM6.58682 4.9067L6.37185 5.35818L6.37792 5.36097L6.58682 4.9067ZM6.79899 5.0831L6.39002 5.37077L6.39191 5.37342L6.79899 5.0831ZM7.53386 6.1135L7.12679 6.40383L7.1275 6.40482L7.53386 6.1135ZM7.66032 6.334L7.19689 6.52193L7.2005 6.53038L7.66032 6.334ZM7.70459 6.5258L8.20459 6.53154V6.5258H7.70459ZM7.63784 6.7498L7.21619 6.48109L7.2121 6.4875L7.20821 6.49404L7.63784 6.7498ZM7.4608 6.9731L7.11376 6.61315L7.10745 6.61923L7.10136 6.62553L7.4608 6.9731ZM7.21982 7.2223L7.56886 7.58031L7.57413 7.57517L7.57926 7.56987L7.21982 7.2223ZM7.16924 7.3483H7.66924V7.33945L7.66892 7.33061L7.16924 7.3483ZM7.17907 7.4204L6.69411 7.54208L6.70031 7.56681L6.70899 7.59077L7.17907 7.4204ZM7.20437 7.4834L6.7302 7.64203L6.74383 7.68277L6.76421 7.72059L7.20437 7.4834ZM7.49874 7.8866L7.11841 8.21122L7.12164 8.21493L7.49874 7.8866ZM7.95751 8.3843L7.60154 8.73556L7.60828 8.74213L7.95751 8.3843ZM8.46124 8.8477L8.13824 9.22937L8.13991 9.23078L8.46124 8.8477ZM8.86942 9.1368L8.63615 9.57905L8.65005 9.58638L8.6644 9.59283L8.86942 9.1368ZM8.92703 9.1627L8.72201 9.61873L8.74047 9.62703L8.75954 9.63381L8.92703 9.1627ZM9.00572 9.1753L9.01642 8.67541L9.00508 8.67517L8.99374 8.67544L9.00572 9.1753ZM9.13569 9.1214L8.78487 8.76513L8.77939 8.77053L8.77408 8.7761L9.13569 9.1214ZM9.37597 8.8848L9.72679 9.24107L9.7273 9.24056L9.37597 8.8848ZM9.6043 8.7084L9.83738 9.15075L9.85525 9.14133L9.8723 9.13051L9.6043 8.7084ZM9.82911 8.6426L9.83647 8.14257L9.82709 8.1426L9.82911 8.6426ZM10.0223 8.6839L9.82452 9.14327L9.8356 9.14773L10.0223 8.6839ZM10.2436 8.8064L10.5322 8.398L10.5262 8.3939L10.2436 8.8064ZM11.2918 9.547L11.0033 9.95536L11.0115 9.96113L11.0199 9.96656L11.2918 9.547ZM11.4661 9.7479L11.9267 9.55347L11.9235 9.54581L11.92 9.53826L11.4661 9.7479ZM4.51556 14.4492C5.64791 15.1261 7.00134 15.5 8.35515 15.5V14.5C7.17977 14.5 6.00399 14.1739 5.02867 13.5908L4.51556 14.4492ZM8.35515 15.5C12.4936 15.5 15.8807 12.1279 15.8807 8H14.8807C14.8807 11.5721 11.9448 14.5 8.35515 14.5V15.5ZM15.8807 8C15.8807 3.87214 12.4936 0.5 8.35515 0.5V1.5C11.9448 1.5 14.8807 4.42786 14.8807 8H15.8807ZM8.35515 0.5C4.21667 0.5 0.82959 3.87214 0.82959 8H1.82959C1.82959 4.42786 4.76552 1.5 8.35515 1.5V0.5ZM0.82959 8C0.82959 9.35402 1.20712 10.6244 1.80209 11.736L2.68373 11.264C2.15462 10.2756 1.82959 9.16598 1.82959 8H0.82959ZM1.75913 11.3737L1.15493 13.6879L2.1225 13.9405L2.7267 11.6263L1.75913 11.3737ZM1.15491 13.688C1.1014 13.8931 1.10327 14.1086 1.16033 14.3127L2.12341 14.0435C2.11399 14.0098 2.11369 13.9743 2.12252 13.9404L1.15491 13.688ZM1.16033 14.3127C1.21739 14.5169 1.32755 14.7021 1.47944 14.8498L2.17655 14.1328C2.15109 14.1081 2.13284 14.0772 2.12341 14.0435L1.16033 14.3127ZM1.47944 14.8498C1.6313 14.9974 1.81949 15.1023 2.02482 15.1539L2.26869 14.1841C2.23378 14.1754 2.20202 14.1576 2.17655 14.1328L1.47944 14.8498ZM2.02482 15.1539C2.23016 15.2056 2.44551 15.2022 2.64911 15.1441L2.37487 14.1825C2.34026 14.1923 2.3036 14.1929 2.26869 14.1841L2.02482 15.1539ZM2.64887 15.1442L4.90899 14.5009L4.63524 13.5391L2.37511 14.1824L2.64887 15.1442ZM11.0167 9.9936C11.0167 10.0319 11.0083 10.0753 10.986 10.122L11.8885 10.5526C11.9744 10.3725 12.0167 10.1821 12.0167 9.9936H11.0167ZM10.9849 10.1242C10.951 10.1962 10.9065 10.2628 10.8527 10.3218L11.5919 10.9954C11.7128 10.8627 11.8131 10.7127 11.8896 10.5504L10.9849 10.1242ZM10.853 10.3215C10.7421 10.443 10.6313 10.5193 10.5135 10.5673L10.8912 11.4933C11.1613 11.3831 11.3919 11.2144 11.5916 10.9957L10.853 10.3215ZM10.51 10.5688C10.3844 10.6212 10.2443 10.65 10.0855 10.65V11.65C10.3694 11.65 10.641 11.5976 10.8948 11.4918L10.51 10.5688ZM10.0855 10.65C9.84102 10.65 9.5623 10.5928 9.24733 10.4598L8.85825 11.381C9.27253 11.556 9.68373 11.65 10.0855 11.65V10.65ZM9.25107 10.4614C8.90015 10.3098 8.56763 10.1191 8.25984 9.89304L7.66782 10.699C8.03637 10.9697 8.43448 11.198 8.85452 11.3794L9.25107 10.4614ZM8.25806 9.89174C7.91048 9.63876 7.58247 9.36015 7.2768 9.05826L6.5741 9.76974C6.91539 10.1068 7.28159 10.4179 7.6696 10.7003L8.25806 9.89174ZM7.27927 9.06071C6.97707 8.75806 6.69832 8.43304 6.44543 8.08846L5.63925 8.68014C5.92206 9.06547 6.23375 9.4289 6.57163 9.76729L7.27927 9.06071ZM6.44483 8.08766C6.22059 7.7834 6.03088 7.45537 5.87913 7.10958L4.96342 7.51142C5.1449 7.92497 5.37176 8.3172 5.63984 8.68094L6.44483 8.08766ZM5.88211 7.11651C5.75117 6.80545 5.69365 6.52851 5.69365 6.2801H4.69365C4.69365 6.68549 4.78788 7.09455 4.96044 7.50449L5.88211 7.11651ZM5.69365 6.2801C5.69365 6.1255 5.72089 5.98475 5.77147 5.85878L4.84346 5.48622C4.74228 5.73825 4.69365 6.0063 4.69365 6.2801H5.69365ZM5.77263 5.85585C5.8194 5.7372 5.89609 5.62153 6.01416 5.51078L5.33002 4.78142C5.11227 4.98567 4.94728 5.22281 4.84229 5.48915L5.77263 5.85585ZM6.02251 5.50276C6.14858 5.37889 6.24914 5.35 6.33039 5.35V4.35C5.94233 4.35 5.60027 4.51571 5.32167 4.78944L6.02251 5.50276ZM6.33039 5.35C6.349 5.35 6.36355 5.35418 6.37187 5.35814L6.80177 4.45526C6.65131 4.38362 6.48881 4.35 6.33039 4.35V5.35ZM6.37792 5.36097C6.38306 5.36334 6.38493 5.36487 6.38526 5.36514C6.38546 5.3653 6.38705 5.36653 6.39003 5.37077L7.20795 4.79543C7.09639 4.63683 6.95302 4.52477 6.79572 4.45243L6.37792 5.36097ZM6.39191 5.37342L7.12679 6.40382L7.94094 5.82318L7.20607 4.79278L6.39191 5.37342ZM7.1275 6.40482C7.16832 6.46177 7.18794 6.49962 7.19697 6.5219L8.12368 6.1461C8.0765 6.02978 8.01181 5.92203 7.94023 5.82218L7.1275 6.40482ZM7.2005 6.53038C7.20445 6.53961 7.20589 6.54509 7.20614 6.54615C7.20622 6.54652 7.20587 6.54513 7.20548 6.54201C7.2051 6.53891 7.20459 6.53344 7.20459 6.5258H8.20459C8.20459 6.38107 8.16677 6.2468 8.12014 6.13762L7.2005 6.53038ZM7.20462 6.52006C7.20478 6.50611 7.20885 6.49261 7.21619 6.48109L8.0595 7.01851C8.15227 6.87293 8.20257 6.70429 8.20455 6.53154L7.20462 6.52006ZM7.20821 6.49404C7.18222 6.5377 7.15046 6.57776 7.11376 6.61315L7.80784 7.33305C7.90858 7.23593 7.9959 7.1258 8.06748 7.00556L7.20821 6.49404ZM7.10136 6.62553L6.86039 6.87473L7.57926 7.56987L7.82023 7.32067L7.10136 6.62553ZM6.87078 6.86429C6.80422 6.92918 6.75188 7.0073 6.71719 7.09371L7.6452 7.46626C7.62793 7.50928 7.60189 7.54811 7.56886 7.58031L6.87078 6.86429ZM6.71719 7.09371C6.6825 7.18012 6.66625 7.27287 6.66955 7.36599L7.66892 7.33061C7.67057 7.37703 7.66247 7.42324 7.6452 7.46626L6.71719 7.09371ZM6.66924 7.3483C6.66924 7.42469 6.68085 7.48923 6.69411 7.54208L7.66404 7.29872C7.66405 7.29877 7.66552 7.30457 7.66687 7.31415C7.6683 7.3243 7.66924 7.33597 7.66924 7.3483H6.66924ZM6.70899 7.59077C6.71916 7.61882 6.72943 7.64243 6.73326 7.65136C6.73573 7.65713 6.73586 7.65748 6.73561 7.65686C6.73515 7.65573 6.73294 7.65024 6.7302 7.64203L7.67853 7.32477C7.67263 7.30711 7.66682 7.29217 7.66245 7.28139C7.65829 7.27113 7.6542 7.26163 7.65229 7.25717C7.64734 7.24562 7.64812 7.24718 7.64915 7.25003L6.70899 7.59077ZM6.76421 7.72059C6.84538 7.87123 6.97047 8.03785 7.11843 8.2112L7.87904 7.562C7.74739 7.40775 7.67576 7.30417 7.64453 7.24621L6.76421 7.72059ZM7.12164 8.21493C7.2688 8.38394 7.42781 8.55937 7.60161 8.73549L8.3134 8.03311C8.1584 7.87603 8.01391 7.71686 7.87583 7.55827L7.12164 8.21493ZM7.60828 8.74213C7.78381 8.91343 7.95762 9.07652 8.13824 9.22937L8.78424 8.46603C8.62903 8.33468 8.47405 8.18976 8.30673 8.02647L7.60828 8.74213ZM8.13991 9.23078C8.31896 9.38097 8.48555 9.49961 8.63615 9.57905L9.1027 8.69455C9.03831 8.66059 8.93231 8.59023 8.78257 8.46462L8.13991 9.23078ZM8.6644 9.59283L8.72201 9.61873L9.13206 8.70667L9.07445 8.68077L8.6644 9.59283ZM8.75954 9.63381C8.84236 9.66326 8.92986 9.67726 9.0177 9.67516L8.99374 8.67544C9.02801 8.67462 9.06217 8.68008 9.09453 8.69159L8.75954 9.63381ZM8.99502 9.67519C9.08853 9.67719 9.18148 9.65973 9.26795 9.62387L8.88488 8.70015C8.92658 8.68286 8.97138 8.67445 9.01642 8.67541L8.99502 9.67519ZM9.26795 9.62387C9.35441 9.58802 9.43255 9.53452 9.49731 9.4667L8.77408 8.7761C8.80542 8.74328 8.84318 8.71745 8.88488 8.70015L9.26795 9.62387ZM9.48651 9.47767L9.72679 9.24107L9.02515 8.52853L8.78487 8.76513L9.48651 9.47767ZM9.7273 9.24056C9.78618 9.18242 9.82267 9.1585 9.83738 9.15075L9.37121 8.26605C9.23979 8.3353 9.12453 8.43038 9.02464 8.52904L9.7273 9.24056ZM9.8723 9.13051C9.85986 9.13841 9.84559 9.14254 9.83114 9.1426L9.82709 8.1426C9.65329 8.14331 9.48312 8.19307 9.33629 8.28629L9.8723 9.13051ZM9.82176 9.14255C9.82278 9.14256 9.82374 9.14278 9.82458 9.14314L10.2201 8.22466C10.0988 8.17245 9.96845 8.1446 9.83647 8.14265L9.82176 9.14255ZM9.8356 9.14773C9.86311 9.1588 9.90393 9.17977 9.96106 9.2189L10.5262 8.3939C10.4259 8.32523 10.3206 8.265 10.209 8.22007L9.8356 9.14773ZM9.9551 9.21476L11.0033 9.95536L11.5804 9.13864L10.5321 8.39804L9.9551 9.21476ZM11.0199 9.96656C11.0167 9.96452 11.014 9.96145 11.0121 9.95753L11.92 9.53826C11.8424 9.37032 11.7189 9.22795 11.5638 9.12744L11.0199 9.96656ZM11.0054 9.94233C11.0127 9.95967 11.0165 9.9782 11.0167 9.99689L12.0166 9.99031C12.0157 9.84018 11.9851 9.69176 11.9267 9.55347L11.0054 9.94233Z" fill="white"/>
</svg>
