<svg width="12" height="12" viewBox="0 0 12 12" fill="none" xmlns="http://www.w3.org/2000/svg">
<path fill-rule="evenodd" clip-rule="evenodd" d="M1.8 4.2C1.8 4.04087 1.86321 3.88826 1.97574 3.77573C2.08826 3.66321 2.24087 3.6 2.4 3.6H9.6C9.75913 3.6 9.91174 3.66321 10.0243 3.77573C10.1368 3.88826 10.2 4.04087 10.2 4.2C10.2 4.35913 10.1368 4.51174 10.0243 4.62426C9.91174 4.73678 9.75913 4.8 9.6 4.8H2.4C2.24087 4.8 2.08826 4.73678 1.97574 4.62426C1.86321 4.51174 1.8 4.35913 1.8 4.2ZM1.8 7.8C1.8 7.64087 1.86321 7.48826 1.97574 7.37573C2.08826 7.26321 2.24087 7.2 2.4 7.2H9.6C9.75913 7.2 9.91174 7.26321 10.0243 7.37573C10.1368 7.48826 10.2 7.64087 10.2 7.8C10.2 7.95913 10.1368 8.11174 10.0243 8.22426C9.91174 8.33678 9.75913 8.4 9.6 8.4H2.4C2.24087 8.4 2.08826 8.33678 1.97574 8.22426C1.86321 8.11174 1.8 7.95913 1.8 7.8Z" fill="white"/>
</svg>
